<svg id="Layer_1" data-name="Layer 1" xmlns="http://www.w3.org/2000/svg" xmlns:xlink="http://www.w3.org/1999/xlink" viewBox="0 0 1600 900"><defs><style>.cls-1{fill:none;stroke:pink;stroke-miterlimit:10;stroke-width:2px;}.cls-2{opacity:0.2;}.cls-3{opacity:0.25;}.cls-4{opacity:0.3;}.cls-5{fill:url(#radial-gradient);}.cls-6{fill:url(#linear-gradient);}.cls-7{fill:url(#linear-gradient-2);}.cls-8{fill:url(#radial-gradient-2);}.cls-9{fill:#db3fff;}.cls-10{fill:#a135ff;opacity:0.5;}.cls-10,.cls-11{isolation:isolate;}.cls-11{fill:#f635ff;opacity:0.32;}
.cls-12{fill:url(#radial-gradient-3);}
.cls-13{fill:url(#radial-gradient-4);}
</style><radialGradient id="radial-gradient" cx="787.25" cy="470.3" r="602.78" gradientTransform="translate(0 -475.49) scale(1 2.76)" gradientUnits="userSpaceOnUse"><stop offset="0" stop-color="#ff7f55"/><stop offset="1" stop-color="#ff1563" stop-opacity="0.53"/></radialGradient><linearGradient id="linear-gradient" x1="799.75" y1="262.2" x2="799.75" y2="-340" gradientTransform="translate(0 1340)" gradientUnits="userSpaceOnUse"><stop offset="0" stop-color="#003794"/><stop offset="1" stop-color="#1b003f" stop-opacity="0.53"/></linearGradient><linearGradient id="linear-gradient-2" x1="795.85" y1="262.2" x2="795.85" xlink:href="#linear-gradient"/><radialGradient id="radial-gradient-2" cx="802.15" cy="-49.81" r="598.88" gradientTransform="translate(0 340)" gradientUnits="userSpaceOnUse"><stop offset="0" stop-color="#ff7f55"/><stop offset="0.86" stop-color="#ff1563" stop-opacity="0.53"/></radialGradient><radialGradient id="radial-gradient-3" cx="807.63" cy="432.25" r="584.38" gradientTransform="matrix(1, 0, 0, -1, 0, 900)" gradientUnits="userSpaceOnUse"><stop offset="0" stop-color="#ff9500"/><stop offset="1" stop-color="#5e007f"/></radialGradient><radialGradient id="radial-gradient-4" cx="799.75" cy="399.33" r="570.05" gradientTransform="matrix(1, 0, 0, -1, 0, 900)" gradientUnits="userSpaceOnUse"><stop offset="0" stop-color="#bf7000"/><stop offset="1" stop-color="#4b0055"/></radialGradient></defs><g id="Background"><rect x="0.5" y="0.5" width="1599" height="899"/><path d="M1599,1V899H1V1H1599m1-1H0V900H1600Z"/></g><g id="main_grid" data-name="main grid"><polygon class="cls-1" points="-884.4 1211.1 2537.6 1211.1 1669 602.2 -15.8 602.2 -884.4 1211.1"/><line class="cls-1" x1="-32.6" y1="614" x2="1685.8" y2="614"/><line class="cls-1" x1="-50" y1="626.2" x2="1703.3" y2="626.2"/><line class="cls-1" x1="-68.2" y1="638.9" x2="1721.4" y2="638.9"/><line class="cls-1" x1="-87.1" y1="652.2" x2="1740.4" y2="652.2"/><line class="cls-1" x1="-106.9" y1="666.1" x2="1760.2" y2="666.1"/><line class="cls-1" x1="-127.6" y1="680.5" x2="1780.8" y2="680.5"/><line class="cls-1" x1="-149.1" y1="695.7" x2="1802.4" y2="695.7"/><line class="cls-1" x1="-171.7" y1="711.5" x2="1825" y2="711.5"/><line class="cls-1" x1="-195.4" y1="728.1" x2="1848.6" y2="728.1"/><line class="cls-1" x1="-220.2" y1="745.5" x2="1873.4" y2="745.5"/><line class="cls-1" x1="-246.2" y1="763.7" x2="1899.4" y2="763.7"/><line class="cls-1" x1="-273.6" y1="782.9" x2="1926.8" y2="782.9"/><line class="cls-1" x1="-302.3" y1="803.1" x2="1955.6" y2="803.1"/><line class="cls-1" x1="-332.7" y1="824.3" x2="1985.9" y2="824.3"/><line class="cls-1" x1="-364.7" y1="846.8" x2="2017.9" y2="846.8"/><line class="cls-1" x1="-398.5" y1="870.5" x2="2051.8" y2="870.5"/><line class="cls-1" x1="-434.3" y1="895.6" x2="2087.6" y2="895.6"/><line class="cls-1" x1="2347.5" y1="1211.1" x2="1575.4" y2="602.2"/><line class="cls-1" x1="2252.5" y1="1211.1" x2="1528.6" y2="602.2"/><line class="cls-1" x1="2157.4" y1="1211.1" x2="1481.8" y2="602.2"/><line class="cls-1" x1="2062.3" y1="1211.1" x2="1435" y2="602.2"/><line class="cls-1" x1="1967.3" y1="1211.1" x2="1388.2" y2="602.2"/><line class="cls-1" x1="1872.2" y1="1211.1" x2="1341.4" y2="602.2"/><line class="cls-1" x1="1777.2" y1="1211.1" x2="1294.6" y2="602.2"/><line class="cls-1" x1="1682.1" y1="1211.1" x2="1247.8" y2="602.2"/><line class="cls-1" x1="1587.1" y1="1211.1" x2="1201" y2="602.2"/><line class="cls-1" x1="1492" y1="1211.1" x2="1154.2" y2="602.2"/><line class="cls-1" x1="1397" y1="1211.1" x2="1107.4" y2="602.2"/><line class="cls-1" x1="1301.9" y1="1211.1" x2="1060.6" y2="602.2"/><line class="cls-1" x1="1206.8" y1="1211.1" x2="1013.8" y2="602.2"/><line class="cls-1" x1="1111.8" y1="1211.1" x2="967" y2="602.2"/><line class="cls-1" x1="1016.7" y1="1211.1" x2="920.2" y2="602.2"/><line class="cls-1" x1="921.7" y1="1211.1" x2="873.4" y2="602.2"/><line class="cls-1" x1="826.6" y1="1211.1" x2="826.6" y2="602.2"/><line class="cls-1" x1="731.6" y1="1211.1" x2="779.8" y2="602.2"/><line class="cls-1" x1="636.5" y1="1211.1" x2="733" y2="602.2"/><line class="cls-1" x1="541.5" y1="1211.1" x2="686.2" y2="602.2"/><line class="cls-1" x1="446.4" y1="1211.1" x2="639.4" y2="602.2"/><line class="cls-1" x1="351.3" y1="1211.1" x2="592.6" y2="602.2"/><line class="cls-1" x1="256.3" y1="1211.1" x2="545.8" y2="602.2"/><line class="cls-1" x1="161.2" y1="1211.1" x2="499" y2="602.2"/><line class="cls-1" x1="66.2" y1="1211.1" x2="452.2" y2="602.2"/><line class="cls-1" x1="-28.9" y1="1211.1" x2="405.4" y2="602.2"/><line class="cls-1" x1="-123.9" y1="1211.1" x2="358.6" y2="602.2"/><line class="cls-1" x1="-219" y1="1211.1" x2="311.8" y2="602.2"/><line class="cls-1" x1="-314" y1="1211.1" x2="265" y2="602.2"/><line class="cls-1" x1="-409.1" y1="1211.1" x2="218.2" y2="602.2"/><line class="cls-1" x1="-504.2" y1="1211.1" x2="171.4" y2="602.2"/><line class="cls-1" x1="-599.2" y1="1211.1" x2="124.6" y2="602.2"/><line class="cls-1" x1="-694.3" y1="1211.1" x2="77.8" y2="602.2"/><line class="cls-1" x1="-789.3" y1="1211.1" x2="31" y2="602.2"/><g class="cls-2"><polygon class="cls-1" points="-884.4 1211.1 2537.6 1211.1 1669 602.2 -15.8 602.2 -884.4 1211.1"/><line class="cls-1" x1="-32.6" y1="614" x2="1685.8" y2="614"/><line class="cls-1" x1="-50" y1="626.2" x2="1703.3" y2="626.2"/><line class="cls-1" x1="-68.2" y1="638.9" x2="1721.4" y2="638.9"/><line class="cls-1" x1="-87.1" y1="652.2" x2="1740.4" y2="652.2"/><line class="cls-1" x1="-106.9" y1="666.1" x2="1760.2" y2="666.1"/><line class="cls-1" x1="-127.6" y1="680.5" x2="1780.8" y2="680.5"/><line class="cls-1" x1="-149.1" y1="695.7" x2="1802.4" y2="695.7"/><line class="cls-1" x1="-171.7" y1="711.5" x2="1825" y2="711.5"/><line class="cls-1" x1="-195.4" y1="728.1" x2="1848.6" y2="728.1"/><line class="cls-1" x1="-220.2" y1="745.5" x2="1873.4" y2="745.5"/><line class="cls-1" x1="-246.2" y1="763.7" x2="1899.4" y2="763.7"/><line class="cls-1" x1="-273.6" y1="782.9" x2="1926.8" y2="782.9"/><line class="cls-1" x1="-302.3" y1="803.1" x2="1955.6" y2="803.1"/><line class="cls-1" x1="-332.7" y1="824.3" x2="1985.9" y2="824.3"/><line class="cls-1" x1="-364.7" y1="846.8" x2="2017.9" y2="846.8"/><line class="cls-1" x1="-398.5" y1="870.5" x2="2051.8" y2="870.5"/><line class="cls-1" x1="-434.3" y1="895.6" x2="2087.6" y2="895.6"/><line class="cls-1" x1="2347.5" y1="1211.1" x2="1575.4" y2="602.2"/><line class="cls-1" x1="2252.5" y1="1211.1" x2="1528.6" y2="602.2"/><line class="cls-1" x1="2157.4" y1="1211.1" x2="1481.8" y2="602.2"/><line class="cls-1" x1="2062.3" y1="1211.1" x2="1435" y2="602.2"/><line class="cls-1" x1="1967.3" y1="1211.1" x2="1388.2" y2="602.2"/><line class="cls-1" x1="1872.2" y1="1211.1" x2="1341.4" y2="602.2"/><line class="cls-1" x1="1777.2" y1="1211.1" x2="1294.6" y2="602.2"/><line class="cls-1" x1="1682.1" y1="1211.1" x2="1247.8" y2="602.2"/><line class="cls-1" x1="1587.1" y1="1211.1" x2="1201" y2="602.2"/><line class="cls-1" x1="1492" y1="1211.1" x2="1154.2" y2="602.2"/><line class="cls-1" x1="1397" y1="1211.1" x2="1107.4" y2="602.2"/><line class="cls-1" x1="1301.9" y1="1211.1" x2="1060.6" y2="602.2"/><line class="cls-1" x1="1206.8" y1="1211.1" x2="1013.8" y2="602.2"/><line class="cls-1" x1="1111.8" y1="1211.1" x2="967" y2="602.2"/><line class="cls-1" x1="1016.7" y1="1211.1" x2="920.2" y2="602.2"/><line class="cls-1" x1="921.7" y1="1211.1" x2="873.4" y2="602.2"/><line class="cls-1" x1="826.6" y1="1211.1" x2="826.6" y2="602.2"/><line class="cls-1" x1="731.6" y1="1211.1" x2="779.8" y2="602.2"/><line class="cls-1" x1="636.5" y1="1211.1" x2="733" y2="602.2"/><line class="cls-1" x1="541.5" y1="1211.1" x2="686.2" y2="602.2"/><line class="cls-1" x1="446.4" y1="1211.1" x2="639.4" y2="602.2"/><line class="cls-1" x1="351.3" y1="1211.1" x2="592.6" y2="602.2"/><line class="cls-1" x1="256.3" y1="1211.1" x2="545.8" y2="602.2"/><line class="cls-1" x1="161.2" y1="1211.1" x2="499" y2="602.2"/><line class="cls-1" x1="66.2" y1="1211.1" x2="452.2" y2="602.2"/><line class="cls-1" x1="-28.9" y1="1211.1" x2="405.4" y2="602.2"/><line class="cls-1" x1="-123.9" y1="1211.1" x2="358.6" y2="602.2"/><line class="cls-1" x1="-219" y1="1211.1" x2="311.8" y2="602.2"/><line class="cls-1" x1="-314" y1="1211.1" x2="265" y2="602.2"/><line class="cls-1" x1="-409.1" y1="1211.1" x2="218.2" y2="602.2"/><line class="cls-1" x1="-504.2" y1="1211.1" x2="171.4" y2="602.2"/><line class="cls-1" x1="-599.2" y1="1211.1" x2="124.6" y2="602.2"/><line class="cls-1" x1="-694.3" y1="1211.1" x2="77.8" y2="602.2"/><line class="cls-1" x1="-789.3" y1="1211.1" x2="31" y2="602.2"/></g><g class="cls-3"><polygon class="cls-1" points="-884.4 1211.1 2537.6 1211.1 1669 602.2 -15.8 602.2 -884.4 1211.1"/><line class="cls-1" x1="-32.6" y1="614" x2="1685.8" y2="614"/><line class="cls-1" x1="-50" y1="626.2" x2="1703.3" y2="626.2"/><line class="cls-1" x1="-68.2" y1="638.9" x2="1721.4" y2="638.9"/><line class="cls-1" x1="-87.1" y1="652.2" x2="1740.4" y2="652.2"/><line class="cls-1" x1="-106.9" y1="666.1" x2="1760.2" y2="666.1"/><line class="cls-1" x1="-127.6" y1="680.5" x2="1780.8" y2="680.5"/><line class="cls-1" x1="-149.1" y1="695.7" x2="1802.4" y2="695.7"/><line class="cls-1" x1="-171.7" y1="711.5" x2="1825" y2="711.5"/><line class="cls-1" x1="-195.4" y1="728.1" x2="1848.6" y2="728.1"/><line class="cls-1" x1="-220.2" y1="745.5" x2="1873.4" y2="745.5"/><line class="cls-1" x1="-246.2" y1="763.7" x2="1899.4" y2="763.7"/><line class="cls-1" x1="-273.6" y1="782.9" x2="1926.8" y2="782.9"/><line class="cls-1" x1="-302.3" y1="803.1" x2="1955.6" y2="803.1"/><line class="cls-1" x1="-332.7" y1="824.3" x2="1985.9" y2="824.3"/><line class="cls-1" x1="-364.7" y1="846.8" x2="2017.9" y2="846.8"/><line class="cls-1" x1="-398.5" y1="870.5" x2="2051.8" y2="870.5"/><line class="cls-1" x1="-434.3" y1="895.6" x2="2087.6" y2="895.6"/><line class="cls-1" x1="2347.5" y1="1211.1" x2="1575.4" y2="602.2"/><line class="cls-1" x1="2252.5" y1="1211.1" x2="1528.6" y2="602.2"/><line class="cls-1" x1="2157.4" y1="1211.1" x2="1481.8" y2="602.2"/><line class="cls-1" x1="2062.3" y1="1211.1" x2="1435" y2="602.2"/><line class="cls-1" x1="1967.3" y1="1211.1" x2="1388.2" y2="602.2"/><line class="cls-1" x1="1872.2" y1="1211.1" x2="1341.4" y2="602.2"/><line class="cls-1" x1="1777.2" y1="1211.1" x2="1294.6" y2="602.2"/><line class="cls-1" x1="1682.1" y1="1211.1" x2="1247.8" y2="602.2"/><line class="cls-1" x1="1587.1" y1="1211.1" x2="1201" y2="602.2"/><line class="cls-1" x1="1492" y1="1211.1" x2="1154.2" y2="602.2"/><line class="cls-1" x1="1397" y1="1211.1" x2="1107.4" y2="602.2"/><line class="cls-1" x1="1301.9" y1="1211.1" x2="1060.6" y2="602.2"/><line class="cls-1" x1="1206.8" y1="1211.1" x2="1013.8" y2="602.2"/><line class="cls-1" x1="1111.8" y1="1211.1" x2="967" y2="602.2"/><line class="cls-1" x1="1016.7" y1="1211.1" x2="920.2" y2="602.2"/><line class="cls-1" x1="921.7" y1="1211.1" x2="873.4" y2="602.2"/><line class="cls-1" x1="826.6" y1="1211.1" x2="826.6" y2="602.2"/><line class="cls-1" x1="731.6" y1="1211.1" x2="779.8" y2="602.2"/><line class="cls-1" x1="636.5" y1="1211.1" x2="733" y2="602.2"/><line class="cls-1" x1="541.5" y1="1211.1" x2="686.2" y2="602.2"/><line class="cls-1" x1="446.4" y1="1211.1" x2="639.4" y2="602.2"/><line class="cls-1" x1="351.3" y1="1211.1" x2="592.6" y2="602.2"/><line class="cls-1" x1="256.3" y1="1211.1" x2="545.8" y2="602.2"/><line class="cls-1" x1="161.2" y1="1211.1" x2="499" y2="602.2"/><line class="cls-1" x1="66.2" y1="1211.1" x2="452.2" y2="602.2"/><line class="cls-1" x1="-28.9" y1="1211.1" x2="405.4" y2="602.2"/><line class="cls-1" x1="-123.9" y1="1211.1" x2="358.6" y2="602.2"/><line class="cls-1" x1="-219" y1="1211.1" x2="311.8" y2="602.2"/><line class="cls-1" x1="-314" y1="1211.1" x2="265" y2="602.2"/><line class="cls-1" x1="-409.1" y1="1211.1" x2="218.2" y2="602.2"/><line class="cls-1" x1="-504.2" y1="1211.1" x2="171.4" y2="602.2"/><line class="cls-1" x1="-599.2" y1="1211.1" x2="124.6" y2="602.2"/><line class="cls-1" x1="-694.3" y1="1211.1" x2="77.8" y2="602.2"/><line class="cls-1" x1="-789.3" y1="1211.1" x2="31" y2="602.2"/></g><g class="cls-4"><polygon class="cls-1" points="-884.4 1211.1 2537.6 1211.1 1669 602.2 -15.8 602.2 -884.4 1211.1"/><line class="cls-1" x1="-32.6" y1="614" x2="1685.8" y2="614"/><line class="cls-1" x1="-50" y1="626.2" x2="1703.3" y2="626.2"/><line class="cls-1" x1="-68.2" y1="638.9" x2="1721.4" y2="638.9"/><line class="cls-1" x1="-87.1" y1="652.2" x2="1740.4" y2="652.2"/><line class="cls-1" x1="-106.9" y1="666.1" x2="1760.2" y2="666.1"/><line class="cls-1" x1="-127.6" y1="680.5" x2="1780.8" y2="680.5"/><line class="cls-1" x1="-149.1" y1="695.7" x2="1802.4" y2="695.7"/><line class="cls-1" x1="-171.7" y1="711.5" x2="1825" y2="711.5"/><line class="cls-1" x1="-195.4" y1="728.1" x2="1848.6" y2="728.1"/><line class="cls-1" x1="-220.2" y1="745.5" x2="1873.4" y2="745.5"/><line class="cls-1" x1="-246.2" y1="763.7" x2="1899.4" y2="763.7"/><line class="cls-1" x1="-273.6" y1="782.9" x2="1926.8" y2="782.9"/><line class="cls-1" x1="-302.3" y1="803.1" x2="1955.6" y2="803.1"/><line class="cls-1" x1="-332.7" y1="824.3" x2="1985.9" y2="824.3"/><line class="cls-1" x1="-364.7" y1="846.8" x2="2017.9" y2="846.8"/><line class="cls-1" x1="-398.5" y1="870.5" x2="2051.8" y2="870.5"/><line class="cls-1" x1="-434.3" y1="895.6" x2="2087.6" y2="895.6"/><line class="cls-1" x1="2347.5" y1="1211.1" x2="1575.4" y2="602.2"/><line class="cls-1" x1="2252.5" y1="1211.1" x2="1528.6" y2="602.2"/><line class="cls-1" x1="2157.4" y1="1211.1" x2="1481.8" y2="602.2"/><line class="cls-1" x1="2062.3" y1="1211.1" x2="1435" y2="602.2"/><line class="cls-1" x1="1967.3" y1="1211.1" x2="1388.2" y2="602.2"/><line class="cls-1" x1="1872.2" y1="1211.1" x2="1341.4" y2="602.2"/><line class="cls-1" x1="1777.2" y1="1211.1" x2="1294.6" y2="602.2"/><line class="cls-1" x1="1682.1" y1="1211.1" x2="1247.8" y2="602.2"/><line class="cls-1" x1="1587.1" y1="1211.1" x2="1201" y2="602.2"/><line class="cls-1" x1="1492" y1="1211.1" x2="1154.2" y2="602.2"/><line class="cls-1" x1="1397" y1="1211.1" x2="1107.4" y2="602.2"/><line class="cls-1" x1="1301.9" y1="1211.1" x2="1060.6" y2="602.2"/><line class="cls-1" x1="1206.8" y1="1211.1" x2="1013.8" y2="602.2"/><line class="cls-1" x1="1111.8" y1="1211.1" x2="967" y2="602.2"/><line class="cls-1" x1="1016.7" y1="1211.1" x2="920.2" y2="602.2"/><line class="cls-1" x1="921.7" y1="1211.1" x2="873.4" y2="602.2"/><line class="cls-1" x1="826.6" y1="1211.1" x2="826.6" y2="602.2"/><line class="cls-1" x1="731.6" y1="1211.1" x2="779.8" y2="602.2"/><line class="cls-1" x1="636.5" y1="1211.1" x2="733" y2="602.2"/><line class="cls-1" x1="541.5" y1="1211.1" x2="686.2" y2="602.2"/><line class="cls-1" x1="446.4" y1="1211.1" x2="639.4" y2="602.2"/><line class="cls-1" x1="351.3" y1="1211.1" x2="592.6" y2="602.2"/><line class="cls-1" x1="256.3" y1="1211.1" x2="545.8" y2="602.2"/><line class="cls-1" x1="161.2" y1="1211.1" x2="499" y2="602.2"/><line class="cls-1" x1="66.2" y1="1211.1" x2="452.2" y2="602.2"/><line class="cls-1" x1="-28.9" y1="1211.1" x2="405.4" y2="602.2"/><line class="cls-1" x1="-123.9" y1="1211.1" x2="358.6" y2="602.2"/><line class="cls-1" x1="-219" y1="1211.1" x2="311.8" y2="602.2"/><line class="cls-1" x1="-314" y1="1211.1" x2="265" y2="602.2"/><line class="cls-1" x1="-409.1" y1="1211.1" x2="218.2" y2="602.2"/><line class="cls-1" x1="-504.2" y1="1211.1" x2="171.4" y2="602.2"/><line class="cls-1" x1="-599.2" y1="1211.1" x2="124.6" y2="602.2"/><line class="cls-1" x1="-694.3" y1="1211.1" x2="77.8" y2="602.2"/><line class="cls-1" x1="-789.3" y1="1211.1" x2="31" y2="602.2"/></g><polygon class="cls-1" points="-884.4 1211.1 2537.6 1211.1 1669 602.2 -15.8 602.2 -884.4 1211.1"/><line class="cls-1" x1="-32.6" y1="614" x2="1685.8" y2="614"/><line class="cls-1" x1="-50" y1="626.2" x2="1703.3" y2="626.2"/><line class="cls-1" x1="-68.2" y1="638.9" x2="1721.4" y2="638.9"/><line class="cls-1" x1="-87.1" y1="652.2" x2="1740.4" y2="652.2"/><line class="cls-1" x1="-106.9" y1="666.1" x2="1760.2" y2="666.1"/><line class="cls-1" x1="-127.6" y1="680.5" x2="1780.8" y2="680.5"/><line class="cls-1" x1="-149.1" y1="695.7" x2="1802.4" y2="695.7"/><line class="cls-1" x1="-171.7" y1="711.5" x2="1825" y2="711.5"/><line class="cls-1" x1="-195.4" y1="728.1" x2="1848.6" y2="728.1"/><line class="cls-1" x1="-220.2" y1="745.5" x2="1873.4" y2="745.5"/><line class="cls-1" x1="-246.2" y1="763.7" x2="1899.4" y2="763.7"/><line class="cls-1" x1="-273.6" y1="782.9" x2="1926.8" y2="782.9"/><line class="cls-1" x1="-302.3" y1="803.1" x2="1955.6" y2="803.1"/><line class="cls-1" x1="-332.7" y1="824.3" x2="1985.9" y2="824.3"/><line class="cls-1" x1="-364.7" y1="846.8" x2="2017.9" y2="846.8"/><line class="cls-1" x1="-398.5" y1="870.5" x2="2051.8" y2="870.5"/><line class="cls-1" x1="-434.3" y1="895.6" x2="2087.6" y2="895.6"/><line class="cls-1" x1="2347.5" y1="1211.1" x2="1575.4" y2="602.2"/><line class="cls-1" x1="2252.5" y1="1211.1" x2="1528.6" y2="602.2"/><line class="cls-1" x1="2157.4" y1="1211.1" x2="1481.8" y2="602.2"/><line class="cls-1" x1="2062.3" y1="1211.1" x2="1435" y2="602.2"/><line class="cls-1" x1="1967.3" y1="1211.1" x2="1388.2" y2="602.2"/><line class="cls-1" x1="1872.2" y1="1211.1" x2="1341.4" y2="602.2"/><line class="cls-1" x1="1777.2" y1="1211.1" x2="1294.6" y2="602.2"/><line class="cls-1" x1="1682.1" y1="1211.1" x2="1247.8" y2="602.2"/><line class="cls-1" x1="1587.1" y1="1211.1" x2="1201" y2="602.2"/><line class="cls-1" x1="1492" y1="1211.1" x2="1154.2" y2="602.2"/><line class="cls-1" x1="1397" y1="1211.1" x2="1107.4" y2="602.2"/><line class="cls-1" x1="1301.9" y1="1211.1" x2="1060.6" y2="602.2"/><line class="cls-1" x1="1206.8" y1="1211.1" x2="1013.8" y2="602.2"/><line class="cls-1" x1="1111.8" y1="1211.1" x2="967" y2="602.2"/><line class="cls-1" x1="1016.7" y1="1211.1" x2="920.2" y2="602.2"/><line class="cls-1" x1="921.7" y1="1211.1" x2="873.4" y2="602.2"/><line class="cls-1" x1="826.6" y1="1211.1" x2="826.6" y2="602.2"/><line class="cls-1" x1="731.6" y1="1211.1" x2="779.8" y2="602.2"/><line class="cls-1" x1="636.5" y1="1211.1" x2="733" y2="602.2"/><line class="cls-1" x1="541.5" y1="1211.1" x2="686.2" y2="602.2"/><line class="cls-1" x1="446.4" y1="1211.1" x2="639.4" y2="602.2"/><line class="cls-1" x1="351.3" y1="1211.1" x2="592.6" y2="602.2"/><line class="cls-1" x1="256.3" y1="1211.1" x2="545.8" y2="602.2"/><line class="cls-1" x1="161.2" y1="1211.1" x2="499" y2="602.2"/><line class="cls-1" x1="66.2" y1="1211.1" x2="452.2" y2="602.2"/><line class="cls-1" x1="-28.9" y1="1211.1" x2="405.4" y2="602.2"/><line class="cls-1" x1="-123.9" y1="1211.1" x2="358.6" y2="602.2"/><line class="cls-1" x1="-219" y1="1211.1" x2="311.8" y2="602.2"/><line class="cls-1" x1="-314" y1="1211.1" x2="265" y2="602.2"/><line class="cls-1" x1="-409.1" y1="1211.1" x2="218.2" y2="602.2"/><line class="cls-1" x1="-504.2" y1="1211.1" x2="171.4" y2="602.2"/><line class="cls-1" x1="-599.2" y1="1211.1" x2="124.6" y2="602.2"/><line class="cls-1" x1="-694.3" y1="1211.1" x2="77.8" y2="602.2"/><line class="cls-1" x1="-789.3" y1="1211.1" x2="31" y2="602.2"/><polygon class="cls-1" points="-884.4 1211.1 2537.6 1211.1 1669 602.2 -15.8 602.2 -884.4 1211.1"/><line class="cls-1" x1="-32.6" y1="614" x2="1685.8" y2="614"/><line class="cls-1" x1="-50" y1="626.2" x2="1703.3" y2="626.2"/><line class="cls-1" x1="-68.2" y1="638.9" x2="1721.4" y2="638.9"/><line class="cls-1" x1="-87.1" y1="652.2" x2="1740.4" y2="652.2"/><line class="cls-1" x1="-106.9" y1="666.1" x2="1760.2" y2="666.1"/><line class="cls-1" x1="-127.6" y1="680.5" x2="1780.8" y2="680.5"/><line class="cls-1" x1="-149.1" y1="695.7" x2="1802.4" y2="695.7"/><line class="cls-1" x1="-171.7" y1="711.5" x2="1825" y2="711.5"/><line class="cls-1" x1="-195.4" y1="728.1" x2="1848.6" y2="728.1"/><line class="cls-1" x1="-220.2" y1="745.5" x2="1873.4" y2="745.5"/><line class="cls-1" x1="-246.2" y1="763.7" x2="1899.4" y2="763.7"/><line class="cls-1" x1="-273.6" y1="782.9" x2="1926.8" y2="782.9"/><line class="cls-1" x1="-302.3" y1="803.1" x2="1955.6" y2="803.1"/><line class="cls-1" x1="-332.7" y1="824.3" x2="1985.9" y2="824.3"/><line class="cls-1" x1="-364.7" y1="846.8" x2="2017.9" y2="846.8"/><line class="cls-1" x1="-398.5" y1="870.5" x2="2051.8" y2="870.5"/><line class="cls-1" x1="-434.3" y1="895.6" x2="2087.6" y2="895.6"/><line class="cls-1" x1="2347.5" y1="1211.1" x2="1575.4" y2="602.2"/><line class="cls-1" x1="2252.5" y1="1211.1" x2="1528.6" y2="602.2"/><line class="cls-1" x1="2157.4" y1="1211.1" x2="1481.8" y2="602.2"/><line class="cls-1" x1="2062.3" y1="1211.1" x2="1435" y2="602.2"/><line class="cls-1" x1="1967.3" y1="1211.1" x2="1388.2" y2="602.2"/><line class="cls-1" x1="1872.2" y1="1211.1" x2="1341.4" y2="602.2"/><line class="cls-1" x1="1777.2" y1="1211.1" x2="1294.6" y2="602.2"/><line class="cls-1" x1="1682.1" y1="1211.1" x2="1247.8" y2="602.2"/><line class="cls-1" x1="1587.1" y1="1211.1" x2="1201" y2="602.2"/><line class="cls-1" x1="1492" y1="1211.1" x2="1154.2" y2="602.2"/><line class="cls-1" x1="1397" y1="1211.1" x2="1107.4" y2="602.2"/><line class="cls-1" x1="1301.9" y1="1211.1" x2="1060.6" y2="602.2"/><line class="cls-1" x1="1206.8" y1="1211.1" x2="1013.8" y2="602.2"/><line class="cls-1" x1="1111.8" y1="1211.1" x2="967" y2="602.2"/><line class="cls-1" x1="1016.7" y1="1211.1" x2="920.2" y2="602.2"/><line class="cls-1" x1="921.7" y1="1211.1" x2="873.4" y2="602.2"/><line class="cls-1" x1="826.6" y1="1211.1" x2="826.6" y2="602.2"/><line class="cls-1" x1="731.6" y1="1211.1" x2="779.8" y2="602.2"/><line class="cls-1" x1="636.5" y1="1211.1" x2="733" y2="602.2"/><line class="cls-1" x1="541.5" y1="1211.1" x2="686.2" y2="602.2"/><line class="cls-1" x1="446.4" y1="1211.1" x2="639.4" y2="602.2"/><line class="cls-1" x1="351.3" y1="1211.1" x2="592.6" y2="602.2"/><line class="cls-1" x1="256.3" y1="1211.1" x2="545.8" y2="602.2"/><line class="cls-1" x1="161.2" y1="1211.1" x2="499" y2="602.2"/><line class="cls-1" x1="66.2" y1="1211.1" x2="452.2" y2="602.2"/><line class="cls-1" x1="-28.9" y1="1211.1" x2="405.4" y2="602.2"/><line class="cls-1" x1="-123.9" y1="1211.1" x2="358.6" y2="602.2"/><line class="cls-1" x1="-219" y1="1211.1" x2="311.8" y2="602.2"/><line class="cls-1" x1="-314" y1="1211.1" x2="265" y2="602.2"/><line class="cls-1" x1="-409.1" y1="1211.1" x2="218.2" y2="602.2"/><line class="cls-1" x1="-504.2" y1="1211.1" x2="171.4" y2="602.2"/><line class="cls-1" x1="-599.2" y1="1211.1" x2="124.6" y2="602.2"/><line class="cls-1" x1="-694.3" y1="1211.1" x2="77.8" y2="602.2"/><line class="cls-1" x1="-789.3" y1="1211.1" x2="31" y2="602.2"/><polygon class="cls-1" points="-884.4 1211.1 2537.6 1211.1 1669 602.2 -15.8 602.2 -884.4 1211.1"/><line class="cls-1" x1="-32.6" y1="614" x2="1685.8" y2="614"/><line class="cls-1" x1="-50" y1="626.2" x2="1703.3" y2="626.2"/><line class="cls-1" x1="-68.2" y1="638.9" x2="1721.4" y2="638.9"/><line class="cls-1" x1="-87.1" y1="652.2" x2="1740.4" y2="652.2"/><line class="cls-1" x1="-106.9" y1="666.1" x2="1760.2" y2="666.1"/><line class="cls-1" x1="-127.6" y1="680.5" x2="1780.8" y2="680.5"/><line class="cls-1" x1="-149.1" y1="695.7" x2="1802.4" y2="695.7"/><line class="cls-1" x1="-171.7" y1="711.5" x2="1825" y2="711.5"/><line class="cls-1" x1="-195.4" y1="728.1" x2="1848.6" y2="728.1"/><line class="cls-1" x1="-220.2" y1="745.5" x2="1873.4" y2="745.5"/><line class="cls-1" x1="-246.2" y1="763.7" x2="1899.4" y2="763.7"/><line class="cls-1" x1="-273.6" y1="782.9" x2="1926.8" y2="782.9"/><line class="cls-1" x1="-302.3" y1="803.1" x2="1955.6" y2="803.1"/><line class="cls-1" x1="-332.7" y1="824.3" x2="1985.9" y2="824.3"/><line class="cls-1" x1="-364.7" y1="846.8" x2="2017.9" y2="846.8"/><line class="cls-1" x1="-398.5" y1="870.5" x2="2051.8" y2="870.5"/><line class="cls-1" x1="-434.3" y1="895.6" x2="2087.6" y2="895.6"/><line class="cls-1" x1="2347.5" y1="1211.1" x2="1575.4" y2="602.2"/><line class="cls-1" x1="2252.5" y1="1211.1" x2="1528.6" y2="602.2"/><line class="cls-1" x1="2157.4" y1="1211.1" x2="1481.8" y2="602.2"/><line class="cls-1" x1="2062.3" y1="1211.1" x2="1435" y2="602.2"/><line class="cls-1" x1="1967.3" y1="1211.1" x2="1388.2" y2="602.2"/><line class="cls-1" x1="1872.2" y1="1211.1" x2="1341.4" y2="602.2"/><line class="cls-1" x1="1777.2" y1="1211.1" x2="1294.6" y2="602.2"/><line class="cls-1" x1="1682.1" y1="1211.1" x2="1247.8" y2="602.2"/><line class="cls-1" x1="1587.1" y1="1211.1" x2="1201" y2="602.2"/><line class="cls-1" x1="1492" y1="1211.1" x2="1154.2" y2="602.2"/><line class="cls-1" x1="1397" y1="1211.1" x2="1107.4" y2="602.2"/><line class="cls-1" x1="1301.9" y1="1211.1" x2="1060.6" y2="602.2"/><line class="cls-1" x1="1206.8" y1="1211.1" x2="1013.8" y2="602.2"/><line class="cls-1" x1="1111.8" y1="1211.1" x2="967" y2="602.2"/><line class="cls-1" x1="1016.7" y1="1211.1" x2="920.2" y2="602.2"/><line class="cls-1" x1="921.7" y1="1211.1" x2="873.4" y2="602.2"/><line class="cls-1" x1="826.6" y1="1211.1" x2="826.6" y2="602.2"/><line class="cls-1" x1="731.6" y1="1211.1" x2="779.8" y2="602.2"/><line class="cls-1" x1="636.5" y1="1211.1" x2="733" y2="602.2"/><line class="cls-1" x1="541.5" y1="1211.1" x2="686.2" y2="602.2"/><line class="cls-1" x1="446.4" y1="1211.1" x2="639.4" y2="602.2"/><line class="cls-1" x1="351.3" y1="1211.1" x2="592.6" y2="602.2"/><line class="cls-1" x1="256.3" y1="1211.1" x2="545.8" y2="602.2"/><line class="cls-1" x1="161.2" y1="1211.1" x2="499" y2="602.2"/><line class="cls-1" x1="66.2" y1="1211.1" x2="452.2" y2="602.2"/><line class="cls-1" x1="-28.9" y1="1211.1" x2="405.4" y2="602.2"/><line class="cls-1" x1="-123.9" y1="1211.1" x2="358.6" y2="602.2"/><line class="cls-1" x1="-219" y1="1211.1" x2="311.8" y2="602.2"/><line class="cls-1" x1="-314" y1="1211.1" x2="265" y2="602.2"/><line class="cls-1" x1="-409.1" y1="1211.1" x2="218.2" y2="602.2"/><line class="cls-1" x1="-504.2" y1="1211.1" x2="171.4" y2="602.2"/><line class="cls-1" x1="-599.2" y1="1211.1" x2="124.6" y2="602.2"/><line class="cls-1" x1="-694.3" y1="1211.1" x2="77.8" y2="602.2"/><line class="cls-1" x1="-789.3" y1="1211.1" x2="31" y2="602.2"/><polygon class="cls-1" points="-884.4 1211.1 2537.6 1211.1 1669 602.2 -15.8 602.2 -884.4 1211.1"/><line class="cls-1" x1="-32.6" y1="614" x2="1685.8" y2="614"/><line class="cls-1" x1="-50" y1="626.2" x2="1703.3" y2="626.2"/><line class="cls-1" x1="-68.2" y1="638.9" x2="1721.4" y2="638.9"/><line class="cls-1" x1="-87.1" y1="652.2" x2="1740.4" y2="652.2"/><line class="cls-1" x1="-106.9" y1="666.1" x2="1760.2" y2="666.1"/><line class="cls-1" x1="-127.6" y1="680.5" x2="1780.8" y2="680.5"/><line class="cls-1" x1="-149.1" y1="695.7" x2="1802.4" y2="695.7"/><line class="cls-1" x1="-171.7" y1="711.5" x2="1825" y2="711.5"/><line class="cls-1" x1="-195.4" y1="728.1" x2="1848.6" y2="728.1"/><line class="cls-1" x1="-220.2" y1="745.5" x2="1873.4" y2="745.5"/><line class="cls-1" x1="-246.2" y1="763.7" x2="1899.4" y2="763.7"/><line class="cls-1" x1="-273.6" y1="782.9" x2="1926.8" y2="782.9"/><line class="cls-1" x1="-302.3" y1="803.1" x2="1955.6" y2="803.1"/><line class="cls-1" x1="-332.7" y1="824.3" x2="1985.9" y2="824.3"/><line class="cls-1" x1="-364.7" y1="846.8" x2="2017.9" y2="846.8"/><line class="cls-1" x1="-398.5" y1="870.5" x2="2051.8" y2="870.5"/><line class="cls-1" x1="-434.3" y1="895.6" x2="2087.6" y2="895.6"/><line class="cls-1" x1="2347.5" y1="1211.1" x2="1575.4" y2="602.2"/><line class="cls-1" x1="2252.5" y1="1211.1" x2="1528.6" y2="602.2"/><line class="cls-1" x1="2157.4" y1="1211.1" x2="1481.8" y2="602.2"/><line class="cls-1" x1="2062.3" y1="1211.1" x2="1435" y2="602.2"/><line class="cls-1" x1="1967.3" y1="1211.1" x2="1388.2" y2="602.2"/><line class="cls-1" x1="1872.2" y1="1211.1" x2="1341.4" y2="602.2"/><line class="cls-1" x1="1777.2" y1="1211.1" x2="1294.6" y2="602.2"/><line class="cls-1" x1="1682.1" y1="1211.1" x2="1247.8" y2="602.2"/><line class="cls-1" x1="1587.1" y1="1211.1" x2="1201" y2="602.2"/><line class="cls-1" x1="1492" y1="1211.1" x2="1154.2" y2="602.2"/><line class="cls-1" x1="1397" y1="1211.1" x2="1107.4" y2="602.2"/><line class="cls-1" x1="1301.9" y1="1211.1" x2="1060.6" y2="602.2"/><line class="cls-1" x1="1206.8" y1="1211.1" x2="1013.8" y2="602.2"/><line class="cls-1" x1="1111.8" y1="1211.1" x2="967" y2="602.2"/><line class="cls-1" x1="1016.7" y1="1211.1" x2="920.2" y2="602.2"/><line class="cls-1" x1="921.7" y1="1211.1" x2="873.4" y2="602.2"/><line class="cls-1" x1="826.6" y1="1211.1" x2="826.6" y2="602.2"/><line class="cls-1" x1="731.6" y1="1211.1" x2="779.8" y2="602.2"/><line class="cls-1" x1="636.5" y1="1211.1" x2="733" y2="602.2"/><line class="cls-1" x1="541.5" y1="1211.1" x2="686.2" y2="602.2"/><line class="cls-1" x1="446.4" y1="1211.1" x2="639.4" y2="602.2"/><line class="cls-1" x1="351.3" y1="1211.1" x2="592.6" y2="602.2"/><line class="cls-1" x1="256.3" y1="1211.1" x2="545.8" y2="602.2"/><line class="cls-1" x1="161.2" y1="1211.1" x2="499" y2="602.2"/><line class="cls-1" x1="66.2" y1="1211.1" x2="452.2" y2="602.2"/><line class="cls-1" x1="-28.9" y1="1211.1" x2="405.4" y2="602.2"/><line class="cls-1" x1="-123.9" y1="1211.1" x2="358.6" y2="602.2"/><line class="cls-1" x1="-219" y1="1211.1" x2="311.8" y2="602.2"/><line class="cls-1" x1="-314" y1="1211.1" x2="265" y2="602.2"/><line class="cls-1" x1="-409.1" y1="1211.1" x2="218.2" y2="602.2"/><line class="cls-1" x1="-504.2" y1="1211.1" x2="171.4" y2="602.2"/><line class="cls-1" x1="-599.2" y1="1211.1" x2="124.6" y2="602.2"/><line class="cls-1" x1="-694.3" y1="1211.1" x2="77.8" y2="602.2"/><line class="cls-1" x1="-789.3" y1="1211.1" x2="31" y2="602.2"/><polygon class="cls-1" points="-884.4 1211.1 2537.6 1211.1 1669 602.2 -15.8 602.2 -884.4 1211.1"/><line class="cls-1" x1="-32.6" y1="614" x2="1685.8" y2="614"/><line class="cls-1" x1="-50" y1="626.2" x2="1703.3" y2="626.2"/><line class="cls-1" x1="-68.2" y1="638.9" x2="1721.4" y2="638.9"/><line class="cls-1" x1="-87.1" y1="652.2" x2="1740.4" y2="652.2"/><line class="cls-1" x1="-106.9" y1="666.1" x2="1760.2" y2="666.1"/><line class="cls-1" x1="-127.6" y1="680.5" x2="1780.8" y2="680.5"/><line class="cls-1" x1="-149.1" y1="695.7" x2="1802.4" y2="695.7"/><line class="cls-1" x1="-171.7" y1="711.5" x2="1825" y2="711.5"/><line class="cls-1" x1="-195.4" y1="728.1" x2="1848.6" y2="728.1"/><line class="cls-1" x1="-220.2" y1="745.5" x2="1873.4" y2="745.5"/><line class="cls-1" x1="-246.2" y1="763.7" x2="1899.4" y2="763.7"/><line class="cls-1" x1="-273.6" y1="782.9" x2="1926.8" y2="782.9"/><line class="cls-1" x1="-302.3" y1="803.1" x2="1955.6" y2="803.1"/><line class="cls-1" x1="-332.7" y1="824.3" x2="1985.9" y2="824.3"/><line class="cls-1" x1="-364.7" y1="846.8" x2="2017.9" y2="846.8"/><line class="cls-1" x1="-398.5" y1="870.5" x2="2051.8" y2="870.5"/><line class="cls-1" x1="-434.3" y1="895.6" x2="2087.6" y2="895.6"/><line class="cls-1" x1="2347.5" y1="1211.1" x2="1575.4" y2="602.2"/><line class="cls-1" x1="2252.5" y1="1211.1" x2="1528.6" y2="602.2"/><line class="cls-1" x1="2157.4" y1="1211.1" x2="1481.8" y2="602.2"/><line class="cls-1" x1="2062.3" y1="1211.1" x2="1435" y2="602.2"/><line class="cls-1" x1="1967.3" y1="1211.1" x2="1388.2" y2="602.2"/><line class="cls-1" x1="1872.2" y1="1211.1" x2="1341.4" y2="602.2"/><line class="cls-1" x1="1777.2" y1="1211.1" x2="1294.6" y2="602.2"/><line class="cls-1" x1="1682.1" y1="1211.1" x2="1247.8" y2="602.2"/><line class="cls-1" x1="1587.1" y1="1211.1" x2="1201" y2="602.2"/><line class="cls-1" x1="1492" y1="1211.1" x2="1154.2" y2="602.2"/><line class="cls-1" x1="1397" y1="1211.1" x2="1107.4" y2="602.2"/><line class="cls-1" x1="1301.9" y1="1211.1" x2="1060.6" y2="602.2"/><line class="cls-1" x1="1206.8" y1="1211.1" x2="1013.8" y2="602.2"/><line class="cls-1" x1="1111.8" y1="1211.1" x2="967" y2="602.2"/><line class="cls-1" x1="1016.7" y1="1211.1" x2="920.2" y2="602.2"/><line class="cls-1" x1="921.7" y1="1211.1" x2="873.4" y2="602.2"/><line class="cls-1" x1="826.6" y1="1211.1" x2="826.6" y2="602.2"/><line class="cls-1" x1="731.6" y1="1211.1" x2="779.8" y2="602.2"/><line class="cls-1" x1="636.5" y1="1211.1" x2="733" y2="602.2"/><line class="cls-1" x1="541.5" y1="1211.1" x2="686.2" y2="602.2"/><line class="cls-1" x1="446.4" y1="1211.1" x2="639.4" y2="602.2"/><line class="cls-1" x1="351.3" y1="1211.1" x2="592.6" y2="602.2"/><line class="cls-1" x1="256.3" y1="1211.1" x2="545.8" y2="602.2"/><line class="cls-1" x1="161.2" y1="1211.1" x2="499" y2="602.2"/><line class="cls-1" x1="66.2" y1="1211.1" x2="452.2" y2="602.2"/><line class="cls-1" x1="-28.9" y1="1211.1" x2="405.4" y2="602.2"/><line class="cls-1" x1="-123.9" y1="1211.1" x2="358.6" y2="602.2"/><line class="cls-1" x1="-219" y1="1211.1" x2="311.8" y2="602.2"/><line class="cls-1" x1="-314" y1="1211.1" x2="265" y2="602.2"/><line class="cls-1" x1="-409.1" y1="1211.1" x2="218.2" y2="602.2"/><line class="cls-1" x1="-504.2" y1="1211.1" x2="171.4" y2="602.2"/><line class="cls-1" x1="-599.2" y1="1211.1" x2="124.6" y2="602.2"/><line class="cls-1" x1="-694.3" y1="1211.1" x2="77.8" y2="602.2"/><line class="cls-1" x1="-789.3" y1="1211.1" x2="31" y2="602.2"/></g><g id="lower_gradient" data-name="lower gradient"><rect class="cls-5" x="-61.4" y="600.2" width="1697.3" height="444.7"/></g><g id="upper_gradient" data-name="upper gradient"><rect class="cls-6" width="1599.5" height="602.2"/></g><g id="sun_glow" data-name="sun glow"><rect class="cls-7" x="-7.8" width="1607.3" height="602.2"/></g><g id="sun-2"><path class="cls-8" d="M582.35,347h435.3a229,229,0,0,0,8.3-27.5H574.05A229,229,0,0,0,582.35,347ZM1032,262.9H568.05v3.6a242.94,242.94,0,0,0,1.7,28.4h460.5a242.94,242.94,0,0,0,1.7-28.4ZM609.55,399.1h380.8a237.12,237.12,0,0,0,14.1-23h-409a235.76,235.76,0,0,0,14.1,23Zm49.9,52h281A236.58,236.58,0,0,0,962,432.6H638.05a222,222,0,0,0,21.4,18.54ZM800,498.54a233.94,233.94,0,0,0,65.2-9.3H734.75A230.55,230.55,0,0,0,800,498.54Zm0-464c-120.1,0-218.9,91.3-230.8,208.3h461.6C1019,125.84,920.15,34.54,800,34.54Z"/></g><g id="stars"><path class="cls-9" d="M315.4,195.6c-3.2,0-3.2,5,0,5S318.6,195.6,315.4,195.6Z"/><path class="cls-10" d="M315.4,193.1c-6.4,0-6.4,10,0,10S321.8,193.1,315.4,193.1Z"/><path class="cls-11" d="M315.4,191.6c-8.4,0-8.4,13,0,13S323.8,191.6,315.4,191.6Z"/><path class="cls-9" d="M1206.8,202.1c-3.2,0-3.2,5,0,5S1210.1,202.1,1206.8,202.1Z"/><path class="cls-10" d="M1206.8,199.6c-6.4,0-6.4,10,0,10S1213.3,199.6,1206.8,199.6Z"/><path class="cls-11" d="M1206.8,198.1c-8.4,0-8.4,13,0,13S1215.2,198.1,1206.8,198.1Z"/><path class="cls-9" d="M1413.7,271.8c-3.2,0-3.2,5,0,5S1417,271.8,1413.7,271.8Z"/><path class="cls-11" d="M1194.3,39.4c-8.4,0-8.4,13,0,13S1202.7,39.4,1194.3,39.4Z"/><path class="cls-9" d="M1535.9,56.4c-3.2,0-3.2,5,0,5S1539.1,56.4,1535.9,56.4Z"/><path class="cls-10" d="M1535.9,53.9c-6.4,0-6.4,10,0,10S1542.4,53.9,1535.9,53.9Z"/><path class="cls-11" d="M1535.9,52.4c-8.4,0-8.4,13,0,13S1544.3,52.4,1535.9,52.4Z"/><path class="cls-9" d="M541.5,79.1c-3.2,0-3.2,5,0,5S544.7,79.1,541.5,79.1Z"/><path class="cls-10" d="M541.5,76.6c-6.4,0-6.4,10,0,10S547.9,76.6,541.5,76.6Z"/><path class="cls-11" d="M541.5,75.1c-8.4,0-8.4,13,0,13S549.8,75.1,541.5,75.1Z"/></g><path class="cls-9" d="M454.6,376.14c-3.2,0-3.2,5,0,5s3.3-5,0-5"/><path class="cls-9" d="M134.5,159.57c-3.2,0-3.2,5,0,5s3.3-5,0-5"/><g id="mountain_2" data-name="mountain 2"><polygon class="cls-12" points="1599.5 602.2 -7.8 602.2 15.61 417.43 55.8 493.89 77.8 524.59 94.31 549.7 107.71 474.36 124.6 387.64 134.5 333.29 161.2 376.14 171.4 441.89 188.25 489.24 218.2 517.89 256.3 541.33 296.92 544.68 309.1 529.61 351.3 451.14 367.24 500.67 385.66 537.98 405.4 557.55 446.4 578 499 588.22 592.6 589.89 673.66 537.98 810.96 586.54 1016.7 589.89 1095.61 586.54 1111.8 500.67 1119.05 451.14 1154.2 511.19 1170.96 554.73 1213.1 578 1237.94 522.91 1247.8 467.75 1261.38 432.64 1278.12 387.64 1314.96 467.75 1341.4 531.29 1366.87 563.1 1411.3 578 1435 451.14 1448.91 347.04 1492 493.89 1557.75 578 1575.4 460.96 1587.1 360.5 1623.05 543.01 1599.5 602.2"/></g><g id="mountain_1" data-name="mountain 1"><polygon class="cls-13" points="0 602.2 1599.5 602.2 1529.6 441.89 1492 522.04 1435 556.4 1411.3 522.04 1403.7 551.38 1388.2 507.84 1371.89 472.68 1323.1 556.4 1294.6 493.89 1266.4 578 1227.89 399.14 1200.5 519.57 1164.26 578 1140.82 532.96 1077.19 564.77 985.1 576.5 946.59 551.38 904.73 571.47 787.25 559.75 734.75 569.8 639.4 571.47 574.05 548.03 499 519.57 462.68 569.8 446.4 479.38 419.15 556.4 378.96 559.75 351.3 507.84 330.1 451.14 320.2 407.38 280.17 474.36 256.3 512.87 218.2 549.7 161.2 507.84 132.82 469.33 95.98 450 55.8 509.52 31 548.03 0 602.2"/></g></svg>
